<mxfile host="app.diagrams.net" modified="2024-04-26T09:31:47.637Z" agent="Mozilla/5.0 (Windows NT 10.0; Win64; x64) AppleWebKit/537.36 (KHTML, like Gecko) Chrome/124.0.0.0 Safari/537.36" etag="APbGcV7Bk4Y6HRjOr9AD" version="24.3.0" type="device">
  <diagram id="UZXJ_m2pab3PtxKkziKr" name="PÃ¡gina-1">
    <mxGraphModel dx="1674" dy="780" grid="1" gridSize="10" guides="1" tooltips="1" connect="1" arrows="1" fold="1" page="1" pageScale="1" pageWidth="827" pageHeight="1169" math="0" shadow="0">
      <root>
        <mxCell id="0" />
        <mxCell id="1" parent="0" />
        <mxCell id="2" value="Movie" style="swimlane;fontStyle=1;align=center;verticalAlign=top;childLayout=stackLayout;horizontal=1;startSize=28.4;horizontalStack=0;resizeParent=1;resizeParentMax=0;resizeLast=0;collapsible=0;marginBottom=0;" parent="1" vertex="1">
          <mxGeometry x="20" y="200" width="117" height="146.4" as="geometry" />
        </mxCell>
        <mxCell id="3" value="- title: string" style="text;strokeColor=none;fillColor=none;align=left;verticalAlign=top;spacingLeft=4;spacingRight=4;overflow=hidden;rotatable=0;points=[[0,0.5],[1,0.5]];portConstraint=eastwest;" parent="2" vertex="1">
          <mxGeometry y="28.4" width="117" height="28" as="geometry" />
        </mxCell>
        <mxCell id="4" value="- year: int" style="text;strokeColor=none;fillColor=none;align=left;verticalAlign=top;spacingLeft=4;spacingRight=4;overflow=hidden;rotatable=0;points=[[0,0.5],[1,0.5]];portConstraint=eastwest;" parent="2" vertex="1">
          <mxGeometry y="56.4" width="117" height="28" as="geometry" />
        </mxCell>
        <mxCell id="5" value="- genre: string" style="text;strokeColor=none;fillColor=none;align=left;verticalAlign=top;spacingLeft=4;spacingRight=4;overflow=hidden;rotatable=0;points=[[0,0.5],[1,0.5]];portConstraint=eastwest;" parent="2" vertex="1">
          <mxGeometry y="84.4" width="117" height="28" as="geometry" />
        </mxCell>
        <mxCell id="-aRihf_QjSl5-fY7ULlI-38" value="- image: string" style="text;strokeColor=none;fillColor=none;align=left;verticalAlign=top;spacingLeft=4;spacingRight=4;overflow=hidden;rotatable=0;points=[[0,0.5],[1,0.5]];portConstraint=eastwest;whiteSpace=wrap;html=1;" vertex="1" parent="2">
          <mxGeometry y="112.4" width="117" height="26" as="geometry" />
        </mxCell>
        <mxCell id="6" style="line;strokeWidth=1;fillColor=none;align=left;verticalAlign=middle;spacingTop=-1;spacingLeft=3;spacingRight=3;rotatable=0;labelPosition=right;points=[];portConstraint=eastwest;strokeColor=inherit;" parent="2" vertex="1">
          <mxGeometry y="138.4" width="117" height="8" as="geometry" />
        </mxCell>
        <mxCell id="8" value="Series" style="swimlane;fontStyle=1;align=center;verticalAlign=top;childLayout=stackLayout;horizontal=1;startSize=28.4;horizontalStack=0;resizeParent=1;resizeParentMax=0;resizeLast=0;collapsible=0;marginBottom=0;" parent="1" vertex="1">
          <mxGeometry x="220" y="200" width="117" height="146.4" as="geometry" />
        </mxCell>
        <mxCell id="9" value="- title: string" style="text;strokeColor=none;fillColor=none;align=left;verticalAlign=top;spacingLeft=4;spacingRight=4;overflow=hidden;rotatable=0;points=[[0,0.5],[1,0.5]];portConstraint=eastwest;" parent="8" vertex="1">
          <mxGeometry y="28.4" width="117" height="28" as="geometry" />
        </mxCell>
        <mxCell id="10" value="- year: int" style="text;strokeColor=none;fillColor=none;align=left;verticalAlign=top;spacingLeft=4;spacingRight=4;overflow=hidden;rotatable=0;points=[[0,0.5],[1,0.5]];portConstraint=eastwest;" parent="8" vertex="1">
          <mxGeometry y="56.4" width="117" height="28" as="geometry" />
        </mxCell>
        <mxCell id="11" value="- genre: string" style="text;strokeColor=none;fillColor=none;align=left;verticalAlign=top;spacingLeft=4;spacingRight=4;overflow=hidden;rotatable=0;points=[[0,0.5],[1,0.5]];portConstraint=eastwest;" parent="8" vertex="1">
          <mxGeometry y="84.4" width="117" height="28" as="geometry" />
        </mxCell>
        <mxCell id="-aRihf_QjSl5-fY7ULlI-39" value="- image: string" style="text;strokeColor=none;fillColor=none;align=left;verticalAlign=top;spacingLeft=4;spacingRight=4;overflow=hidden;rotatable=0;points=[[0,0.5],[1,0.5]];portConstraint=eastwest;whiteSpace=wrap;html=1;" vertex="1" parent="8">
          <mxGeometry y="112.4" width="117" height="26" as="geometry" />
        </mxCell>
        <mxCell id="12" style="line;strokeWidth=1;fillColor=none;align=left;verticalAlign=middle;spacingTop=-1;spacingLeft=3;spacingRight=3;rotatable=0;labelPosition=right;points=[];portConstraint=eastwest;strokeColor=inherit;" parent="8" vertex="1">
          <mxGeometry y="138.4" width="117" height="8" as="geometry" />
        </mxCell>
        <mxCell id="14" value="User" style="swimlane;fontStyle=1;align=center;verticalAlign=top;childLayout=stackLayout;horizontal=1;startSize=28.4;horizontalStack=0;resizeParent=1;resizeParentMax=0;resizeLast=0;collapsible=0;marginBottom=0;" parent="1" vertex="1">
          <mxGeometry x="610" y="200" width="190" height="226.4" as="geometry" />
        </mxCell>
        <mxCell id="15" value="- username: string" style="text;strokeColor=none;fillColor=none;align=left;verticalAlign=top;spacingLeft=4;spacingRight=4;overflow=hidden;rotatable=0;points=[[0,0.5],[1,0.5]];portConstraint=eastwest;" parent="14" vertex="1">
          <mxGeometry y="28.4" width="190" height="28" as="geometry" />
        </mxCell>
        <mxCell id="16" value="- email: string" style="text;strokeColor=none;fillColor=none;align=left;verticalAlign=top;spacingLeft=4;spacingRight=4;overflow=hidden;rotatable=0;points=[[0,0.5],[1,0.5]];portConstraint=eastwest;" parent="14" vertex="1">
          <mxGeometry y="56.4" width="190" height="28" as="geometry" />
        </mxCell>
        <mxCell id="-aRihf_QjSl5-fY7ULlI-29" value="- password: string" style="text;strokeColor=none;fillColor=none;align=left;verticalAlign=top;spacingLeft=4;spacingRight=4;overflow=hidden;rotatable=0;points=[[0,0.5],[1,0.5]];portConstraint=eastwest;whiteSpace=wrap;html=1;" vertex="1" parent="14">
          <mxGeometry y="84.4" width="190" height="26" as="geometry" />
        </mxCell>
        <mxCell id="17" style="line;strokeWidth=1;fillColor=none;align=left;verticalAlign=middle;spacingTop=-1;spacingLeft=3;spacingRight=3;rotatable=0;labelPosition=right;points=[];portConstraint=eastwest;strokeColor=inherit;" parent="14" vertex="1">
          <mxGeometry y="110.4" width="190" height="8" as="geometry" />
        </mxCell>
        <mxCell id="18" value="+ addToList()" style="text;strokeColor=none;fillColor=none;align=left;verticalAlign=top;spacingLeft=4;spacingRight=4;overflow=hidden;rotatable=0;points=[[0,0.5],[1,0.5]];portConstraint=eastwest;" parent="14" vertex="1">
          <mxGeometry y="118.4" width="190" height="28" as="geometry" />
        </mxCell>
        <mxCell id="19" value="+ removeFromList()" style="text;strokeColor=none;fillColor=none;align=left;verticalAlign=top;spacingLeft=4;spacingRight=4;overflow=hidden;rotatable=0;points=[[0,0.5],[1,0.5]];portConstraint=eastwest;" parent="14" vertex="1">
          <mxGeometry y="146.4" width="190" height="28" as="geometry" />
        </mxCell>
        <mxCell id="-aRihf_QjSl5-fY7ULlI-37" value="+ qualify()" style="text;strokeColor=none;fillColor=none;align=left;verticalAlign=top;spacingLeft=4;spacingRight=4;overflow=hidden;rotatable=0;points=[[0,0.5],[1,0.5]];portConstraint=eastwest;whiteSpace=wrap;html=1;" vertex="1" parent="14">
          <mxGeometry y="174.4" width="190" height="26" as="geometry" />
        </mxCell>
        <mxCell id="-aRihf_QjSl5-fY7ULlI-42" value="+ searchUser()" style="text;strokeColor=none;fillColor=none;align=left;verticalAlign=top;spacingLeft=4;spacingRight=4;overflow=hidden;rotatable=0;points=[[0,0.5],[1,0.5]];portConstraint=eastwest;whiteSpace=wrap;html=1;" vertex="1" parent="14">
          <mxGeometry y="200.4" width="190" height="26" as="geometry" />
        </mxCell>
        <mxCell id="20" value="MyEntertainmentList" style="swimlane;fontStyle=1;align=center;verticalAlign=top;childLayout=stackLayout;horizontal=1;startSize=27.5;horizontalStack=0;resizeParent=1;resizeParentMax=0;resizeLast=0;collapsible=0;marginBottom=0;" parent="1" vertex="1">
          <mxGeometry x="250" y="430" width="279" height="201.5" as="geometry" />
        </mxCell>
        <mxCell id="21" value="- movies: Movie[]" style="text;strokeColor=none;fillColor=none;align=left;verticalAlign=top;spacingLeft=4;spacingRight=4;overflow=hidden;rotatable=0;points=[[0,0.5],[1,0.5]];portConstraint=eastwest;" parent="20" vertex="1">
          <mxGeometry y="27.5" width="279" height="28" as="geometry" />
        </mxCell>
        <mxCell id="22" value="- series: Series[]" style="text;strokeColor=none;fillColor=none;align=left;verticalAlign=top;spacingLeft=4;spacingRight=4;overflow=hidden;rotatable=0;points=[[0,0.5],[1,0.5]];portConstraint=eastwest;" parent="20" vertex="1">
          <mxGeometry y="55.5" width="279" height="28" as="geometry" />
        </mxCell>
        <mxCell id="-aRihf_QjSl5-fY7ULlI-41" value="- anime: Anime[]" style="text;strokeColor=none;fillColor=none;align=left;verticalAlign=top;spacingLeft=4;spacingRight=4;overflow=hidden;rotatable=0;points=[[0,0.5],[1,0.5]];portConstraint=eastwest;whiteSpace=wrap;html=1;" vertex="1" parent="20">
          <mxGeometry y="83.5" width="279" height="26" as="geometry" />
        </mxCell>
        <mxCell id="23" value="- users: User[]" style="text;strokeColor=none;fillColor=none;align=left;verticalAlign=top;spacingLeft=4;spacingRight=4;overflow=hidden;rotatable=0;points=[[0,0.5],[1,0.5]];portConstraint=eastwest;" parent="20" vertex="1">
          <mxGeometry y="109.5" width="279" height="28" as="geometry" />
        </mxCell>
        <mxCell id="24" style="line;strokeWidth=1;fillColor=none;align=left;verticalAlign=middle;spacingTop=-1;spacingLeft=3;spacingRight=3;rotatable=0;labelPosition=right;points=[];portConstraint=eastwest;strokeColor=inherit;" parent="20" vertex="1">
          <mxGeometry y="137.5" width="279" height="8" as="geometry" />
        </mxCell>
        <mxCell id="25" value="+ searchByPopular()" style="text;strokeColor=none;fillColor=none;align=left;verticalAlign=top;spacingLeft=4;spacingRight=4;overflow=hidden;rotatable=0;points=[[0,0.5],[1,0.5]];portConstraint=eastwest;" parent="20" vertex="1">
          <mxGeometry y="145.5" width="279" height="28" as="geometry" />
        </mxCell>
        <mxCell id="26" value="+ searchByPremiere()" style="text;strokeColor=none;fillColor=none;align=left;verticalAlign=top;spacingLeft=4;spacingRight=4;overflow=hidden;rotatable=0;points=[[0,0.5],[1,0.5]];portConstraint=eastwest;" parent="20" vertex="1">
          <mxGeometry y="173.5" width="279" height="28" as="geometry" />
        </mxCell>
        <mxCell id="27" value="" style="curved=1;startArrow=open;startSize=12;endArrow=none;exitX=0.5009348290598291;exitY=1;entryX=0.007;entryY=0.094;entryDx=0;entryDy=0;entryPerimeter=0;" parent="1" source="2" target="20" edge="1">
          <mxGeometry relative="1" as="geometry">
            <Array as="points">
              <mxPoint x="60" y="490" />
            </Array>
          </mxGeometry>
        </mxCell>
        <mxCell id="28" value="" style="curved=1;startArrow=open;startSize=12;endArrow=none;exitX=0.5028044871794872;exitY=1;entryX=0.108;entryY=-0.005;entryDx=0;entryDy=0;entryPerimeter=0;" parent="1" source="8" target="20" edge="1">
          <mxGeometry relative="1" as="geometry">
            <Array as="points" />
          </mxGeometry>
        </mxCell>
        <mxCell id="29" value="" style="curved=1;startArrow=open;startSize=12;endArrow=none;exitX=0.5015066964285714;exitY=1;entryX=1.0008680555555556;entryY=0.13855256991095136;" parent="1" source="14" target="20" edge="1">
          <mxGeometry relative="1" as="geometry">
            <Array as="points">
              <mxPoint x="650" y="530" />
            </Array>
          </mxGeometry>
        </mxCell>
        <mxCell id="-aRihf_QjSl5-fY7ULlI-30" value="Anime" style="swimlane;fontStyle=1;align=center;verticalAlign=top;childLayout=stackLayout;horizontal=1;startSize=28.4;horizontalStack=0;resizeParent=1;resizeParentMax=0;resizeLast=0;collapsible=0;marginBottom=0;" vertex="1" parent="1">
          <mxGeometry x="420" y="200" width="117" height="146.4" as="geometry" />
        </mxCell>
        <mxCell id="-aRihf_QjSl5-fY7ULlI-31" value="- title: string" style="text;strokeColor=none;fillColor=none;align=left;verticalAlign=top;spacingLeft=4;spacingRight=4;overflow=hidden;rotatable=0;points=[[0,0.5],[1,0.5]];portConstraint=eastwest;" vertex="1" parent="-aRihf_QjSl5-fY7ULlI-30">
          <mxGeometry y="28.4" width="117" height="28" as="geometry" />
        </mxCell>
        <mxCell id="-aRihf_QjSl5-fY7ULlI-32" value="- year: int" style="text;strokeColor=none;fillColor=none;align=left;verticalAlign=top;spacingLeft=4;spacingRight=4;overflow=hidden;rotatable=0;points=[[0,0.5],[1,0.5]];portConstraint=eastwest;" vertex="1" parent="-aRihf_QjSl5-fY7ULlI-30">
          <mxGeometry y="56.4" width="117" height="28" as="geometry" />
        </mxCell>
        <mxCell id="-aRihf_QjSl5-fY7ULlI-33" value="- genre: string" style="text;strokeColor=none;fillColor=none;align=left;verticalAlign=top;spacingLeft=4;spacingRight=4;overflow=hidden;rotatable=0;points=[[0,0.5],[1,0.5]];portConstraint=eastwest;" vertex="1" parent="-aRihf_QjSl5-fY7ULlI-30">
          <mxGeometry y="84.4" width="117" height="28" as="geometry" />
        </mxCell>
        <mxCell id="-aRihf_QjSl5-fY7ULlI-40" value="- image: string" style="text;strokeColor=none;fillColor=none;align=left;verticalAlign=top;spacingLeft=4;spacingRight=4;overflow=hidden;rotatable=0;points=[[0,0.5],[1,0.5]];portConstraint=eastwest;whiteSpace=wrap;html=1;" vertex="1" parent="-aRihf_QjSl5-fY7ULlI-30">
          <mxGeometry y="112.4" width="117" height="26" as="geometry" />
        </mxCell>
        <mxCell id="-aRihf_QjSl5-fY7ULlI-34" style="line;strokeWidth=1;fillColor=none;align=left;verticalAlign=middle;spacingTop=-1;spacingLeft=3;spacingRight=3;rotatable=0;labelPosition=right;points=[];portConstraint=eastwest;strokeColor=inherit;" vertex="1" parent="-aRihf_QjSl5-fY7ULlI-30">
          <mxGeometry y="138.4" width="117" height="8" as="geometry" />
        </mxCell>
        <mxCell id="-aRihf_QjSl5-fY7ULlI-36" value="" style="curved=1;startArrow=open;startSize=12;endArrow=none;exitX=0.5;exitY=1;entryX=0.814;entryY=0;entryDx=0;entryDy=0;exitDx=0;exitDy=0;entryPerimeter=0;" edge="1" parent="1" source="-aRihf_QjSl5-fY7ULlI-30" target="20">
          <mxGeometry relative="1" as="geometry">
            <Array as="points" />
            <mxPoint x="289" y="350" as="sourcePoint" />
            <mxPoint x="346" y="430" as="targetPoint" />
          </mxGeometry>
        </mxCell>
      </root>
    </mxGraphModel>
  </diagram>
</mxfile>
